
<svg width="115px" height="70px" viewBox="0 0 115 70" version="1.1" xmlns="http://www.w3.org/2000/svg" xmlns:xlink="http://www.w3.org/1999/xlink">
    <g id="Page-1" stroke="none" stroke-width="1" fill="none" fill-rule="evenodd">
        <g id="Логотипы" transform="translate(-241.000000, -46.000000)">
            <g id="Logo" transform="translate(241.000000, 46.000000)">
                <g id="Group-5">
                    <polygon id="Fill-1" fill="#346AE5" points="20.7793103 0 23.9517241 10.7722772 0 14.7328317 24.2689655 18.8516436 36.8 48 101.834324 48 111.034483 45.6237624 115 28.8318416 104.055172 14.8912475 78.9929448 14.7328317 45.2068966 31.3663366"></polygon>
                    <polygon id="Fill-2" fill="#2457C6" points="58 48 101.796249 48 111 45.7040816 99.7335329 33"></polygon>
                    <polygon id="Fill-3" fill="#2B4D98" points="36.8093023 48 58 48 37.2837209 21.3641304 24 19"></polygon>
                    <polygon id="Fill-4" fill="#346AE5" points="20.5732759 0 37 21 0 14.5263158 23.6034483 10.5789474"></polygon>
                </g>
                <path d="M16.24,69.128 C15.0559941,69.128 13.9893381,68.8800025 13.04,68.384 C12.0906619,67.8879975 11.3466694,67.1946711 10.808,66.304 C10.2693306,65.4133289 10,64.4026723 10,63.272 C10,62.1413277 10.2693306,61.1306711 10.808,60.24 C11.3466694,59.3493289 12.0906619,58.6560025 13.04,58.16 C13.9893381,57.6639975 15.0559941,57.416 16.24,57.416 C17.3280054,57.416 18.2986624,57.6079981 19.152,57.992 C20.0053376,58.3760019 20.7093306,58.930663 21.264,59.656 L18.88,61.784 C18.1866632,60.909329 17.3706714,60.472 16.432,60.472 C15.6426627,60.472 15.0080024,60.7253308 14.528,61.232 C14.0479976,61.7386692 13.808,62.4186624 13.808,63.272 C13.808,64.1253376 14.0479976,64.8053308 14.528,65.312 C15.0080024,65.8186692 15.6426627,66.072 16.432,66.072 C17.3706714,66.072 18.1866632,65.634671 18.88,64.76 L21.264,66.888 C20.7093306,67.613337 20.0053376,68.1679981 19.152,68.552 C18.2986624,68.9360019 17.3280054,69.128 16.24,69.128 Z M22.24,57 L25.856,57 L25.856,68.872 L22.24,68.872 L22.24,57 Z M36.768,64.488 C36.768,64.5413336 36.7520002,64.8239974 36.72,65.336 L30.64,65.336 C30.7680006,65.6666683 30.9813318,65.9199991 31.28,66.096 C31.5786682,66.2720009 31.9519978,66.36 32.4,66.36 C32.7840019,66.36 33.1066654,66.3120005 33.368,66.216 C33.6293346,66.1199995 33.9146651,65.9546678 34.224,65.72 L36.112,67.624 C35.2586624,68.5626714 33.9840085,69.032 32.288,69.032 C31.2319947,69.032 30.304004,68.8373353 29.504,68.448 C28.703996,68.0586647 28.0853355,67.5173368 27.648,66.824 C27.2106645,66.1306632 26.992,65.3520043 26.992,64.488 C26.992,63.613329 27.2079978,62.8320034 27.64,62.144 C28.0720022,61.4559966 28.6639962,60.9200019 29.416,60.536 C30.1680038,60.1519981 31.0133286,59.96 31.952,59.96 C32.8373378,59.96 33.6453297,60.1359982 34.376,60.488 C35.1066703,60.8400018 35.6879978,61.3573299 36.12,62.04 C36.5520022,62.7226701 36.768,63.5386619 36.768,64.488 Z M31.984,62.424 C31.6106648,62.424 31.3013346,62.5253323 31.056,62.728 C30.8106654,62.9306677 30.650667,63.2186648 30.576,63.592 L33.392,63.592 C33.317333,63.2293315 33.1573346,62.944001 32.912,62.736 C32.6666654,62.527999 32.3573352,62.424 31.984,62.424 Z M41.824,59.96 C43.3600077,59.96 44.5333293,60.3039966 45.344,60.992 C46.1546707,61.6800034 46.56,62.7386595 46.56,64.168 L46.56,68.872 L43.2,68.872 L43.2,67.72 C42.7839979,68.594671 41.9573395,69.032 40.72,69.032 C40.0266632,69.032 39.4373358,68.9120012 38.952,68.672 C38.4666642,68.4319988 38.0986679,68.1066687 37.848,67.696 C37.5973321,67.2853313 37.472,66.8240026 37.472,66.312 C37.472,65.4479957 37.8026634,64.7920022 38.464,64.344 C39.1253366,63.8959978 40.1279933,63.672 41.472,63.672 L42.928,63.672 C42.8106661,62.9893299 42.2613382,62.648 41.28,62.648 C40.8853314,62.648 40.4853354,62.7093327 40.08,62.832 C39.6746646,62.9546673 39.3280014,63.1226656 39.04,63.336 L37.888,60.952 C38.3893358,60.6426651 38.9946631,60.4000009 39.704,60.224 C40.4133369,60.0479991 41.1199965,59.96 41.824,59.96 Z M41.808,66.856 C42.0640013,66.856 42.2933323,66.7866674 42.496,66.648 C42.6986677,66.5093326 42.8479995,66.3013347 42.944,66.024 L42.944,65.416 L42.048,65.416 C41.3119963,65.416 40.944,65.6613309 40.944,66.152 C40.944,66.3546677 41.0213326,66.522666 41.176,66.656 C41.3306674,66.789334 41.541332,66.856 41.808,66.856 Z M54.208,59.96 C55.2853387,59.96 56.1519967,60.2853301 56.808,60.936 C57.4640033,61.5866699 57.792,62.5679934 57.792,63.88 L57.792,68.872 L54.176,68.872 L54.176,64.504 C54.176,63.5013283 53.8186702,63 53.104,63 C52.6986646,63 52.3706679,63.1413319 52.12,63.424 C51.8693321,63.7066681 51.744,64.151997 51.744,64.76 L51.744,68.872 L48.128,68.872 L48.128,60.12 L51.568,60.12 L51.568,60.984 C51.909335,60.642665 52.3039978,60.3866675 52.752,60.216 C53.2000022,60.0453325 53.6853307,59.96 54.208,59.96 Z M77.696,57.672 L74.112,68.872 L70.064,68.872 L68.256,62.888 L66.352,68.872 L62.304,68.872 L58.72,57.672 L62.608,57.672 L64.56,64.04 L66.624,57.672 L70.096,57.672 L72.048,64.12 L74.112,57.672 L77.696,57.672 Z M84.736,59.96 C85.8133387,59.96 86.6799967,60.2853301 87.336,60.936 C87.9920033,61.5866699 88.32,62.5679934 88.32,63.88 L88.32,68.872 L84.704,68.872 L84.704,64.504 C84.704,63.5013283 84.3466702,63 83.632,63 C83.2266646,63 82.8986679,63.1413319 82.648,63.424 C82.3973321,63.7066681 82.272,64.151997 82.272,64.76 L82.272,68.872 L78.656,68.872 L78.656,57 L82.272,57 L82.272,60.824 C82.9440034,60.2479971 83.7653285,59.96 84.736,59.96 Z M93.808,59.96 C95.3440077,59.96 96.5173293,60.3039966 97.328,60.992 C98.1386707,61.6800034 98.544,62.7386595 98.544,64.168 L98.544,68.872 L95.184,68.872 L95.184,67.72 C94.7679979,68.594671 93.9413395,69.032 92.704,69.032 C92.0106632,69.032 91.4213358,68.9120012 90.936,68.672 C90.4506642,68.4319988 90.0826679,68.1066687 89.832,67.696 C89.5813321,67.2853313 89.456,66.8240026 89.456,66.312 C89.456,65.4479957 89.7866634,64.7920022 90.448,64.344 C91.1093366,63.8959978 92.1119933,63.672 93.456,63.672 L94.912,63.672 C94.7946661,62.9893299 94.2453382,62.648 93.264,62.648 C92.8693314,62.648 92.4693354,62.7093327 92.064,62.832 C91.6586646,62.9546673 91.3120014,63.1226656 91.024,63.336 L89.872,60.952 C90.3733358,60.6426651 90.9786631,60.4000009 91.688,60.224 C92.3973369,60.0479991 93.1039965,59.96 93.808,59.96 Z M93.792,66.856 C94.0480013,66.856 94.2773323,66.7866674 94.48,66.648 C94.6826677,66.5093326 94.8319995,66.3013347 94.928,66.024 L94.928,65.416 L94.032,65.416 C93.2959963,65.416 92.928,65.6613309 92.928,66.152 C92.928,66.3546677 93.0053326,66.522666 93.16,66.656 C93.3146674,66.789334 93.525332,66.856 93.792,66.856 Z M100.112,57 L103.728,57 L103.728,68.872 L100.112,68.872 L100.112,57 Z M114.64,64.488 C114.64,64.5413336 114.624,64.8239974 114.592,65.336 L108.512,65.336 C108.640001,65.6666683 108.853332,65.9199991 109.152,66.096 C109.450668,66.2720009 109.823998,66.36 110.272,66.36 C110.656002,66.36 110.978665,66.3120005 111.24,66.216 C111.501335,66.1199995 111.786665,65.9546678 112.096,65.72 L113.984,67.624 C113.130662,68.5626714 111.856008,69.032 110.16,69.032 C109.103995,69.032 108.176004,68.8373353 107.376,68.448 C106.575996,68.0586647 105.957336,67.5173368 105.52,66.824 C105.082664,66.1306632 104.864,65.3520043 104.864,64.488 C104.864,63.613329 105.079998,62.8320034 105.512,62.144 C105.944002,61.4559966 106.535996,60.9200019 107.288,60.536 C108.040004,60.1519981 108.885329,59.96 109.824,59.96 C110.709338,59.96 111.51733,60.1359982 112.248,60.488 C112.97867,60.8400018 113.559998,61.3573299 113.992,62.04 C114.424002,62.7226701 114.64,63.5386619 114.64,64.488 Z M109.856,62.424 C109.482665,62.424 109.173335,62.5253323 108.928,62.728 C108.682665,62.9306677 108.522667,63.2186648 108.448,63.592 L111.264,63.592 C111.189333,63.2293315 111.029335,62.944001 110.784,62.736 C110.538665,62.527999 110.229335,62.424 109.856,62.424 Z" id="CleanWhale" fill="#2457C6" fill-rule="nonzero"></path>
            </g>
        </g>
    </g>
</svg>